<svg xmlns="http://www.w3.org/2000/svg" width="1280" height="650" viewBox="0 0 1280 650"><rect width="1280" height="650" fill="white"/><text x="640" y="45" text-anchor="middle" font-family="Arial" font-size="28" font-weight="bold">Formal Corpus Completion Dependency</text><g font-family="Arial" text-anchor="middle"><rect x="60" y="120" width="230" height="95" rx="12" fill="#f4f4f4" stroke="#333"/><text x="175" y="155" font-size="18">91 formal cells</text><text x="175" y="185" font-size="15">queries + exports</text><rect x="350" y="120" width="230" height="95" rx="12" fill="#f4f4f4" stroke="#333"/><text x="465" y="155" font-size="18">Ingest + dedup</text><text x="465" y="185" font-size="15">checksums + decisions</text><rect x="640" y="120" width="230" height="95" rx="12" fill="#f4f4f4" stroke="#333"/><text x="755" y="155" font-size="18">Screen + families</text><text x="755" y="185" font-size="15">TA + full text</text><rect x="930" y="120" width="230" height="95" rx="12" fill="#f4f4f4" stroke="#333"/><text x="1045" y="155" font-size="18">Freeze corpus</text><text x="1045" y="185" font-size="15">PRISMA + checksums</text><path d="M290 168H350M580 168H640M870 168H930" stroke="#333" stroke-width="3"/><rect x="350" y="315" width="580" height="120" rx="14" fill="#f4f4f4" stroke="#333" stroke-width="2"/><text x="640" y="355" font-size="21" font-weight="bold">Current hard boundary</text><text x="640" y="390" font-size="17">0/91 source-native formal exports available in this environment</text><text x="640" y="418" font-size="16">Do not fabricate downstream screening, PRISMA, or results</text><path d="M640 435V500" stroke="#333" stroke-width="3"/><rect x="430" y="500" width="420" height="85" rx="12" fill="#f4f4f4" stroke="#333"/><text x="640" y="535" font-size="18">Unlock final analyses only after corpus freeze</text><text x="640" y="563" font-size="15">comparability • reproducibility • contradictions • gaps</text></g></svg>